<svg xmlns="http://www.w3.org/2000/svg" width="396" height="150.48000000000002" viewBox="0 0 300 114"><defs id="SvgjsDefs1011"/><g id="SvgjsG1012" featurekey="rootContainer" transform="matrix(1,0,0,1,0,0)" fill="#111111"><rect y="0" height="1" width="1" opacity="0"/><rect y="109" width="300" height="5"/></g><g id="SvgjsG1013" featurekey="nameFeature-0" transform="matrix(2.5774407386779785,0,0,2.5774407386779785,-3.141104047216897,-7.533401013524852)" fill="#111111"><path d="M1.64 40 c-0.32 0 -0.6 -1.16 -0.28 -1.2 c1.2 -0.16 2.76 -0.72 2.76 -3.04 l0 -9.6 c0 -1.92 -1.04 -2.36 -2.72 -2.56 c-0.32 -0.04 -0.16 -1.08 0.16 -1.16 l6.32 -1.76 c0.48 -0.12 0.68 0.2 0.68 0.6 c0 1.12 0.32 1.52 0.96 1.28 c1.96 -0.72 3.84 -1.88 6.24 -1.88 c3.92 0 5.28 3 5.28 5.6 l0 9.48 c0 2.32 1.56 2.88 2.76 3.04 c0.32 0.04 0.04 1.2 -0.24 1.2 l-8.92 0 c-0.28 0 -0.48 -1.16 -0.24 -1.2 c1.52 -0.24 2.36 -0.92 2.36 -3.04 l0 -7.68 c0 -3.36 -1.64 -4.12 -4.2 -4.12 c-1.72 0 -4.16 0.48 -4.16 1.52 l0 10.28 c0 2.12 1.08 2.84 2.56 3.04 c0.28 0.04 0.04 1.2 -0.28 1.2 l-9.04 0 z M34.730000000000004 40.64 c-5.56 0 -9.72 -4 -9.72 -9.8 c0 -5.64 4 -10.16 9.88 -10.16 c5.56 0 9.72 4 9.72 9.8 c0 5.64 -3.96 10.16 -9.88 10.16 z M35.89 38.24 c1.96 0 4.36 -1.2 4.36 -5.8 c0 -5.24 -2.84 -9.36 -6.56 -9.36 c-1.92 0 -4.32 1.2 -4.32 5.76 c0 5.28 2.84 9.4 6.52 9.4 z M55.980000000000004 40.64 c-5.56 0 -9.72 -4 -9.72 -9.8 c0 -5.64 4 -10.16 9.88 -10.16 c5.56 0 9.72 4 9.72 9.8 c0 5.64 -3.96 10.16 -9.88 10.16 z M57.14 38.24 c1.96 0 4.36 -1.2 4.36 -5.8 c0 -5.24 -2.84 -9.36 -6.56 -9.36 c-1.92 0 -4.32 1.2 -4.32 5.76 c0 5.28 2.84 9.4 6.52 9.4 z M89.51 38 c0.2 0.12 0.28 0.4 0.28 0.56 c0 0.84 -3.48 2.08 -5.16 2.08 c-1.28 0 -1.72 -2.52 -2.92 -2 c-1.72 0.76 -4.56 2 -5.92 2 c-4.4 0 -8.28 -3.4 -8.28 -9.24 c0 -5.4 3.36 -10.72 9.8 -10.72 c3.52 0 4.48 1.92 4.48 -0.68 l0 -3.44 c0 -2.88 -0.24 -3.44 -4.2 -3.92 c-0.28 -0.04 -0.2 -1.08 0.08 -1.12 l8.56 -1.6 c0.36 -0.08 0.68 0.2 0.56 0.72 c-0.28 1.28 -0.72 3.68 -0.72 7.32 l0 17.68 c0 3.4 2.88 2 3.44 2.36 z M81.79 35.68 l0 -9.64 c-0.84 -1.48 -2.4 -2.96 -4.96 -2.96 c-3.4 0 -5 2.36 -5 6.4 c0 5.24 2.84 8.64 5.88 8.64 c1.32 0 4.08 -1.48 4.08 -2.44 z M90.08000000000001 40 c-0.32 0 -0.6 -1.16 -0.28 -1.2 c1.2 -0.16 2.72 -0.72 2.72 -3.04 l0 -17.6 c0 -4.4 -0.6 -5.24 -3.08 -5.52 c-0.32 -0.04 -0.2 -1.08 0.08 -1.12 l7.44 -1.6 c0.36 -0.08 0.68 0.2 0.56 0.72 c-0.28 1.28 -0.72 3.84 -0.72 9.12 l0 16 c0 2.32 1.52 2.88 2.76 3.04 c0.28 0.04 0.04 1.2 -0.28 1.2 l-9.2 0 z M117.09 36.92 c0.36 -0.08 0.68 1 0.44 1.12 c-1.56 0.76 -4.8 2.6 -5.56 2.6 c-4.92 0 -11.24 -2.32 -11.24 -9.4 c0 -4.76 2.92 -10.56 10.08 -10.56 c6.04 0 6.8 4.32 6.8 6 c0 1.04 -0.32 2.6 -0.72 3.52 l-11.88 0.32 c0.76 4.96 4.8 7.04 7.96 7.04 c0.36 0 2.08 -0.2 4.12 -0.64 z M109.41000000000001 23.24 c-3.16 0 -4.4 2.16 -4.52 5.2 l8.68 -0.28 c0.4 -2.16 -0.64 -4.92 -4.16 -4.92 z"/></g></svg>